<?xml version="1.0" encoding="utf-8"?>
<!-- Generator: Adobe Illustrator 27.5.0, SVG Export Plug-In . SVG Version: 6.00 Build 0)  -->
<svg version="1.1" id="Layer_1" xmlns="http://www.w3.org/2000/svg" xmlns:xlink="http://www.w3.org/1999/xlink" x="0px" y="0px"
	 viewBox="0 0 2000 2000" style="enable-background:new 0 0 2000 2000;" xml:space="preserve">
<g>
	<path style="fill:#4D4D4D;" d="M584.063,797.311l-13.84-51.81h-8.642v71.389c0,4.753,3.281,8.871,7.899,9.952l283.202,65.509
		c4.286,0.992,7.322,4.809,7.322,9.209l0,0c0,3.868-2.357,7.346-5.95,8.78L701.86,971.05l164.176-37.219
		c4.306-0.976,7.362-4.803,7.362-9.218v-27.477v-38.587c0-4.634-3.36-8.585-7.933-9.329l-273.179-44.469
		C588.329,804.103,585.102,801.186,584.063,797.311z"/>
	<path style="fill:#808080;" d="M426.594,744.002c0-20.619,67.324-37.335,150.393-37.335c83.069,0,150.407,16.716,150.407,37.335
		c0,10.546-17.675,20.052-45.99,26.83c47.084-7.994,77.695-20.713,77.695-35.094c0-24.197-86.363-43.816-192.913-43.816
		s-192.913,19.619-192.913,43.816c0,20.146,59.858,37.065,141.319,42.196C462.7,772.047,426.594,759.085,426.594,744.002z"/>
	<path style="fill:#808080;" d="M666.969,970.659c-1.215-9.479,20.551-20.106,49.676-24.94c-2.593,0.243-5.117,0.419-7.764,0.756
		c-39.225,4.996-69.849,18.242-68.405,29.611c1.445,11.356,34.418,16.527,73.644,11.531c31.259-3.97,56.765-13.206,65.218-22.549
		c-9.155,7.183-28.14,13.719-50.865,16.608C695.811,985.836,668.266,980.907,666.969,970.659z"/>
	<path style="fill:#4D4D4D;" d="M1415.937,797.311c-1.04,3.875-4.267,6.792-8.223,7.44l-273.179,44.469
		c-4.574,0.745-7.933,4.695-7.933,9.329v38.587v27.477c0,4.415,3.057,8.242,7.362,9.218l164.176,37.219l-152.194-60.711
		c-3.593-1.433-5.95-4.911-5.95-8.78l0,0c0-4.4,3.036-8.217,7.322-9.209l283.202-65.509c4.618-1.08,7.899-5.198,7.899-9.952v-71.389
		h-8.642L1415.937,797.311z"/>
	<path style="fill:#808080;" d="M1433.815,691.922c-106.55,0-192.913,19.619-192.913,43.816c0,14.38,30.611,27.1,77.694,35.094
		c-28.315-6.778-45.99-16.284-45.99-26.83c0-20.619,67.338-37.335,150.407-37.335c83.069,0,150.393,16.716,150.393,37.335
		c0,15.083-36.106,28.045-87.997,33.932c81.462-5.131,141.319-22.05,141.319-42.196
		C1626.728,711.542,1540.365,691.922,1433.815,691.922z"/>
	<path style="fill:#808080;" d="M1291.118,946.475c-2.646-0.338-5.172-0.513-7.764-0.756c29.125,4.834,50.892,15.461,49.676,24.94
		c-1.296,10.249-28.842,15.177-61.505,11.018c-22.725-2.89-41.71-9.425-50.865-16.608c8.453,9.344,33.959,18.58,65.218,22.549
		c39.225,4.996,72.199-0.175,73.644-11.531C1360.968,964.717,1330.344,951.471,1291.118,946.475z"/>
	<path style="fill:#808080;" d="M1029.274,800.781L1000,800.808l-29.274-0.027c-18.537-0.014-36.302,5.116-51.623,14.352
		c-21.059,12.696-33.755,35.666-33.755,60.257v24.515v124.265c0,27.464,22.266,49.717,49.717,49.717
		c10.289,0,19.538,6.238,23.414,15.758l11.003,27.126c3.47,8.555,11.78,14.152,21.012,14.152l0,0v25.723
		c-37.237,4.653-66.138,36.165-66.537,74.581c-0.429,41.328,32.803,75.809,74.121,76.828c42.872,1.058,77.969-33.391,77.969-76.023
		c0-38.78-29.044-70.7-66.541-75.386v-25.723l0,0c9.232,0,17.542-5.597,21.012-14.152l11.003-27.126
		c3.875-9.519,13.125-15.758,23.414-15.758c27.451,0,49.717-22.253,49.717-49.717V899.904V875.39
		c0-24.59-12.696-47.561-33.755-60.257C1065.576,805.897,1047.811,800.767,1029.274,800.781z M1046.382,1232.031
		c0,25.615-20.767,46.382-46.382,46.382s-46.382-20.767-46.382-46.382s20.767-46.382,46.382-46.382
		S1046.382,1206.416,1046.382,1232.031z"/>
	<path style="fill:#4D4D4D;" d="M963.124,1232.031c0,20.362,16.514,36.876,36.876,36.876c3.16,0,6.184-0.527,9.114-1.283
		c-3.74-2.093-6.373-5.941-6.373-10.532c0-6.765,5.482-12.247,12.233-12.247c6.657,0,12.017,5.333,12.179,11.936
		c5.982-6.549,9.722-15.191,9.722-24.75c0-20.362-16.514-36.876-36.876-36.876S963.124,1211.668,963.124,1232.031z"/>
</g>
</svg>
